<svg xmlns="http://www.w3.org/2000/svg" width="782" height="419.44" viewBox="0 0 782 419.44">
  <defs>
    <style>
      .cls-1 {
        fill: #082040;
        fill-rule: evenodd;
      }
    </style>
  </defs>
  <path id="SVG" class="cls-1" d="M911.666,1659.72c-6.067,16.47-12.076,32.95-18.389,49.32a0.561,0.561,0,0,1-.076.19c-0.587,1.59-1.213,3.18-1.82,4.76-4.91,12.67-12.076,21.42-21.687,26.56-7.09,3.81-15.526,5.64-25.384,5.64-50.977,0-162.865.02-220.515,0.04a88.214,88.214,0,0,1-61.65-25.1c-30.408-29.71-81.214-79.33-115.3-112.63,1.858,0.01,3.735.03,5.574,0.03h0.36c3.279,0,8.853-.17,12.8-0.49,1.63-.11,3.356-0.26,5.4-0.49h0.095l0.114-.02c4.246-.49,8.568-1.16,12.853-1.99a22.1,22.1,0,0,0,2.5-.49c3.166-.65,6.37-1.42,9.574-2.33,1.213-.32,2.464-0.68,3.791-1.1l91.66,89.33a65.754,65.754,0,0,0,45.859,18.68c60.569,0.04,203.054.11,203.376,0.09,3.982-.09,6.711-0.74,8.835-2.38,2.142-1.6,3.658-4.17,5.232-8.19,1.46-3.73,2.881-7.48,4.227-11.25,1.82-5.02.3-6.99-5.327-6.99q-52.948-.06-105.916-0.08c-22.389,0-44.8.1-67.166-.08-2.465-.01-4.91-0.03-7.375-0.05a47.05,47.05,0,0,1-14.066-2.58,16.48,16.48,0,0,1-10.692-10.31,22.387,22.387,0,0,1,.057-13.67c2.957-10.14,6.635-20.09,10.237-30.03,0.644-1.77,1.289-3.53,1.914-5.29q4.152-11.625,8.342-23.23,25.705-71.64,51.47-143.25,12.4-34.545,24.777-69.11c2.389-6.71,1.308-8.24-5.63-8.24-7.64,0-15.261-.02-22.882-0.02-5.934.02-7.583,1.31-9.763,7.43q-25.821,72.15-51.641,144.29-8.5,23.67-17.024,47.29c-8.606,23.81-17.175,43.86-25.554,67.75a60,60,0,0,0-3.053,19.76,21.583,21.583,0,0,0,.455,4.47,50,50,0,0,1-33.213-47.08,45.182,45.182,0,0,1,2.73-15.52q1.109-3.06,2.218-6.16c3.829-10.57,7.659-17.35,11.45-27.94q36.683-102.03,73.271-204.08c6.5-18.17,18.825-27.32,37.688-27.34q47.46-.03,94.9,0c8.417,0,10.92,3.65,8,11.78q-38.416,106.635-76.873,213.25c-8.455,23.42-16.986,46.82-25.384,70.26-3.583,9.98-2.616,11.25,7.754,11.25q82.38,0.03,164.8.07c8.038,0,16.095-.07,24.133.18C911.78,1644.93,915.192,1650.12,911.666,1659.72ZM591.548,1498c-19.412,37.88-49.631,63.84-89.442,78.66-1.744.63-3.469,1.25-5.213,1.86-0.531.15-1.1,0.32-1.687,0.51-1.706.55-3.394,1.06-5.119,1.51-3,.86-6.066,1.59-9.156,2.18a0.261,0.261,0,0,1-.114.04,0.068,0.068,0,0,1-.057.02h-0.076c-4,.79-8.057,1.44-12.132,1.91-1.593.17-3.166,0.32-4.721,0.44-3.052.24-8,.41-11.052,0.41h-0.266c-5.042-.02-10.123-0.07-15.166-0.07-4.531,0-9.062.05-13.554,0.28-0.285,0-.55.02-0.835,0.04-0.815.05-1.592,0.13-2.312,0.24a18.014,18.014,0,0,0-15.261,12.95c-2.768,8.5.36,15.46,6.426,21.5,15.982,15.88,129.329,125.75,129.329,125.75s-29.744,0-44.607-.02H496.04a52,52,0,0,1-36.93-15.37c-26.521-25.95-62.237-59.77-88.531-85.98-17.479-17.51-21.043-47.41-7.849-69.26,13.4-22.29,33.915-33.02,59.565-34.06,3.507-.16,7.033-0.19,10.6-0.19,4.967,0,9.934.05,14.92,0.05,3.545,0,7.071-.02,10.6-0.17a107.363,107.363,0,0,0,102.807-99.42c2.958-41.81-25.365-65.85-58.048-70.11-4.8-.62-40.114-0.81-44.948-0.87H324.834a34.154,34.154,0,0,0-32.379,23.21L189.1,1695.81a3.031,3.031,0,0,0,1.915,3.84,2.645,2.645,0,0,0,.966.15l23.2-.02a3.008,3.008,0,0,0,2.844-2c10.01-28.87,74.029-206.4,98.617-279.1a30.5,30.5,0,0,1,28.892-20.69l84.551,0.04c10.805,0,21.573-.02,32.36-0.02,8.626-.02,17.308-0.02,25.934-0.02a41.017,41.017,0,0,1,15.906,3.2,38.038,38.038,0,0,1,13.232,9.24,45.085,45.085,0,0,1,11.734,24.79,42.618,42.618,0,0,1-.435,13.44,43.862,43.862,0,0,1-24.342,31.06,31.084,31.084,0,0,0,.36-4.79,32.362,32.362,0,0,0-27.071-31.89,30.122,30.122,0,0,0-4.152-.4c-0.379-.02-0.758-0.02-1.137-0.02h-0.019c-0.285-.01-0.569-0.03-0.853-0.03H368.114A16.781,16.781,0,0,0,352.228,1454c-15.678,46.56-83.186,236.42-99.072,282.05a15.156,15.156,0,0,1-14.3,10.18h-8.644l-84-.02a15.2,15.2,0,0,1-15.2-15.2,14.872,14.872,0,0,1,.8-4.82L248.7,1382.99a82.658,82.658,0,0,1,78.333-56.22H511.016c35.7,2.27,64.494,17.85,83.546,49a99.127,99.127,0,0,1,13.612,42.34C610.961,1446.47,604.345,1472.98,591.548,1498Z" transform="translate(-131 -1326.78)"/>
</svg>
